<svg width="38" height="37" viewBox="0 0 38 37" fill="none" xmlns="http://www.w3.org/2000/svg">
<path fill-rule="evenodd" clip-rule="evenodd" d="M11.9474 29.7061C9.93759 29.7061 8.29323 31.3472 8.29323 33.3531C8.29323 35.359 9.93759 37.0002 11.9474 37.0002C13.9571 37.0002 15.6015 35.359 15.6015 33.3531C15.6015 31.3472 13.9571 29.7061 11.9474 29.7061ZM0.984985 0.529297V4.17636H4.63912L11.2166 18.0352L8.65867 22.4117C8.47596 22.9587 8.29326 23.6882 8.29326 24.2352C8.29326 26.2411 9.93762 27.8823 11.9474 27.8823H33.8722V24.2352H12.6782C12.4955 24.2352 12.3128 24.0529 12.3128 23.8705V23.6882L13.9572 20.5881H27.4775C28.9391 20.5881 30.0354 19.8587 30.5835 18.7646L37.1609 6.91166C37.5263 6.54695 37.5263 6.3646 37.5263 5.99989C37.5263 4.90577 36.7955 4.17636 35.6993 4.17636H8.65867L7.01431 0.529297H0.984985ZM30.218 29.7061C28.2083 29.7061 26.5639 31.3472 26.5639 33.3531C26.5639 35.359 28.2083 37.0002 30.218 37.0002C32.2278 37.0002 33.8722 35.359 33.8722 33.3531C33.8722 31.3472 32.2278 29.7061 30.218 29.7061Z" fill="#DDBFBD"/>
</svg>
